<?xml version="1.0" encoding="UTF-8" standalone="no"?>
<!-- Created with Inkscape (http://www.inkscape.org/) -->

<svg
   xmlns:dc="http://purl.org/dc/elements/1.1/"
   xmlns:cc="http://creativecommons.org/ns#"
   xmlns:rdf="http://www.w3.org/1999/02/22-rdf-syntax-ns#"
   xmlns:svg="http://www.w3.org/2000/svg"
   xmlns="http://www.w3.org/2000/svg"
   xmlns:sodipodi="http://sodipodi.sourceforge.net/DTD/sodipodi-0.dtd"
   xmlns:inkscape="http://www.inkscape.org/namespaces/inkscape"
   width="744.09448819"
   height="1052.3622047"
   id="svg3254"
   version="1.1"
   inkscape:version="0.48.0 r9654"
   sodipodi:docname="mention-logo.svg">
  <defs
     id="defs3256">
    <clipPath
       clipPathUnits="userSpaceOnUse"
       id="clipPath3158">
      <path
         inkscape:connector-curvature="0"
         d="m 0,841.89 595.28,0 L 595.28,0 0,0 0,841.89 z"
         id="path3160" />
    </clipPath>
    <clipPath
       clipPathUnits="userSpaceOnUse"
       id="clipPath3194">
      <path
         inkscape:connector-curvature="0"
         d="m 0,841.89 595.28,0 L 595.28,0 0,0 0,841.89 z"
         id="path3196" />
    </clipPath>
  </defs>
  <sodipodi:namedview
     id="base"
     pagecolor="#ffffff"
     bordercolor="#666666"
     borderopacity="1.0"
     inkscape:pageopacity="0.0"
     inkscape:pageshadow="2"
     inkscape:zoom="2.0319444"
     inkscape:cx="328.65345"
     inkscape:cy="458.45317"
     inkscape:document-units="px"
     inkscape:current-layer="g3351"
     showgrid="false"
     inkscape:window-width="1920"
     inkscape:window-height="1027"
     inkscape:window-x="0"
     inkscape:window-y="24"
     inkscape:window-maximized="1" />
  <metadata
     id="metadata3259">
    <rdf:RDF>
      <cc:Work
         rdf:about="">
        <dc:format>image/svg+xml</dc:format>
        <dc:type
           rdf:resource="http://purl.org/dc/dcmitype/StillImage" />
      </cc:Work>
    </rdf:RDF>
  </metadata>
  <g
     inkscape:label="Layer 1"
     inkscape:groupmode="layer"
     id="layer1">
    <g
       id="g3351">
      <g
         id="g3431">
        <g
           inkscape:export-ydpi="34.917725"
           inkscape:export-xdpi="34.917725"
           inkscape:export-filename="/home/monokrome/Public/Web/Mention2/mention-logo-small.png"
           id="g3166"
           transform="matrix(1.25,0,0,-1.25,193.16758,584.03218)">
          <path
             inkscape:connector-curvature="0"
             d="m 0,0 c -7.136,-1.152 -13.855,3.697 -15.008,10.834 -1.153,7.137 3.697,13.856 10.834,15.01 C 2.962,26.995 9.682,22.146 10.834,15.009 11.987,7.872 7.137,1.153 0,0 m 21.485,20.146 c -0.16,0.526 -0.735,0.885 -1.278,0.797 l -3.844,-0.621 c -0.543,-0.088 -1.193,0.241 -1.444,0.731 l -2.109,3.425 c -0.326,0.443 -0.33,1.17 -0.008,1.616 l 2.279,3.158 c 0.322,0.445 0.258,1.12 -0.141,1.499 0,0 -1.397,1.326 -2.582,2.182 -1.185,0.854 -2.885,1.762 -2.885,1.762 -0.485,0.26 -1.145,0.107 -1.467,-0.339 L 5.728,31.201 C 5.406,30.756 4.714,30.529 4.191,30.699 l -3.915,0.924 c -0.544,0.084 -1.06,0.598 -1.148,1.141 l -0.621,3.842 c -0.088,0.543 -0.609,0.977 -1.159,0.963 L -5.012,37.4 c -0.547,-0.061 -1.001,-0.113 -1.01,-0.115 -0.01,-0.002 -0.457,-0.096 -0.996,-0.209 L -9.31,36.494 c -0.525,-0.16 -0.884,-0.735 -0.797,-1.278 l 0.621,-3.845 c 0.088,-0.543 -0.241,-1.192 -0.73,-1.443 l -3.426,-2.109 c -0.443,-0.326 -1.171,-0.329 -1.617,-0.007 l -3.155,2.278 c -0.446,0.321 -1.121,0.259 -1.5,-0.14 l -1.547,-1.782 c -0.342,-0.43 -0.628,-0.791 -0.636,-0.801 -0.007,-0.01 -0.259,-0.395 -0.56,-0.855 l -1.204,-2.029 c -0.26,-0.485 -0.107,-1.145 0.339,-1.467 l 3.156,-2.28 c 0.446,-0.321 0.672,-1.012 0.502,-1.536 l -0.924,-3.917 c -0.084,-0.544 -0.597,-1.059 -1.14,-1.147 l -3.844,-0.621 c -0.543,-0.088 -0.977,-0.61 -0.963,-1.16 l 0.17,-2.359 c 0.061,-0.546 0.113,-1 0.115,-1.01 10e-4,-0.008 0.096,-0.456 0.209,-0.994 l 0.582,-2.293 c 0.16,-0.525 0.736,-0.885 1.279,-0.797 l 3.843,0.619 c 0.543,0.088 1.193,-0.241 1.444,-0.73 l 2.11,-3.425 c 0.326,-0.443 0.329,-1.171 0.007,-1.616 l -2.277,-3.156 c -0.323,-0.446 -0.26,-1.12 0.139,-1.499 l 1.787,-1.551 c 0.431,-0.342 0.788,-0.626 0.796,-0.632 0.007,-0.006 0.388,-0.256 0.849,-0.557 l 2.035,-1.208 c 0.485,-0.259 1.145,-0.106 1.467,0.339 l 2.279,3.157 c 0.322,0.445 1.013,0.671 1.536,0.502 l 3.917,-0.923 c 0.543,-0.084 1.06,-0.598 1.148,-1.141 l 0.621,-3.845 c 0.088,-0.543 0.609,-0.976 1.159,-0.963 0,0 1.899,0.047 3.369,0.287 1.47,0.236 3.288,0.79 3.288,0.79 0.526,0.161 0.884,0.736 0.797,1.279 l -0.621,3.843 c -0.087,0.543 0.241,1.192 0.73,1.444 l 3.427,2.109 c 0.443,0.327 1.17,0.329 1.616,0.008 l 3.156,-2.277 c 0.446,-0.321 1.105,-0.244 1.465,0.171 l 3.941,5.458 c 0.281,0.472 0.147,1.123 -0.299,1.445 l -3.157,2.279 c -0.445,0.322 -0.671,1.013 -0.501,1.537 l 0.923,3.915 c 0.084,0.543 0.597,1.059 1.14,1.147 l 3.844,0.62 c 0.543,0.088 0.976,0.61 0.963,1.159 l -0.169,2.36 c -0.062,0.547 -0.114,1.002 -0.116,1.01 -0.001,0.009 -0.095,0.457 -0.209,0.996 l -0.582,2.293 z"
             style="fill:#231f20;fill-opacity:1;fill-rule:nonzero;stroke:none"
             id="path3168" />
        </g>
        <g
           inkscape:export-filename="/home/monokrome/Public/Web/Mention2/mention-logo-small.png"
           inkscape:export-ydpi="34.917725"
           inkscape:export-xdpi="34.917725"
           id="g3339">
          <g
             transform="matrix(1.25,0,0,-1.25,191.71858,575.05993)"
             id="g3170">
            <path
               id="path3172"
               style="fill:#231f20;fill-opacity:1;fill-rule:nonzero;stroke:none"
               d="m 0,0 c -3.171,-0.511 -6.158,1.646 -6.671,4.816 -0.513,3.172 1.644,6.161 4.815,6.672 C 1.317,12 4.304,9.845 4.815,6.671 5.328,3.5 3.172,0.514 0,0 M -2.551,15.794 C -8.102,14.896 -11.874,9.671 -10.977,4.12 -10.081,-1.43 -4.854,-5.202 0.696,-4.306 6.247,-3.408 10.019,1.817 9.122,7.368 8.226,12.92 3,16.689 -2.551,15.794"
               inkscape:connector-curvature="0" />
          </g>
          <g
             transform="matrix(1.25,0,0,-1.25,248.71996,550.30168)"
             id="g3174">
            <path
               id="path3176"
               style="fill:#231f20;fill-opacity:1;fill-rule:nonzero;stroke:none"
               d="m 0,0 c -6.051,-3.954 -14.162,-2.258 -18.118,3.793 -3.955,6.051 -2.257,14.161 3.793,18.117 6.051,3.957 14.162,2.259 18.118,-3.792 C 7.749,12.068 6.05,3.955 0,0 m 11.434,27.143 c -0.361,0.416 -1.032,0.509 -1.493,0.209 L 6.682,25.22 C 6.221,24.919 5.494,24.955 5.066,25.3 l -3.32,2.271 c -0.478,0.272 -0.777,0.935 -0.664,1.473 l 0.797,3.81 c 0.113,0.538 -0.218,1.128 -0.737,1.313 0,0 -1.818,0.646 -3.247,0.944 -1.431,0.3 -3.353,0.439 -3.353,0.439 -0.549,0.04 -1.09,-0.368 -1.203,-0.906 l -0.797,-3.811 c -0.113,-0.538 -0.653,-1.025 -1.2,-1.083 L -12.611,29 c -0.531,-0.144 -1.211,0.115 -1.512,0.575 l -2.13,3.259 c -0.302,0.46 -0.955,0.644 -1.451,0.408 l -2.087,-1.114 c -0.474,-0.279 -0.869,-0.511 -0.876,-0.517 -0.008,-0.005 -0.379,-0.272 -0.824,-0.594 l -1.858,-1.465 c -0.416,-0.361 -0.509,-1.032 -0.208,-1.492 l 2.131,-3.26 c 0.301,-0.46 0.265,-1.188 -0.08,-1.616 l -2.273,-3.32 c -0.272,-0.477 -0.935,-0.777 -1.473,-0.664 l -3.809,0.798 c -0.539,0.113 -1.129,-0.219 -1.314,-0.737 l -0.688,-2.257 c -0.138,-0.532 -0.253,-0.979 -0.255,-0.991 -0.003,-0.013 -0.077,-0.468 -0.164,-1.011 l -0.274,-2.342 c -0.04,-0.548 0.368,-1.09 0.907,-1.202 l 3.809,-0.798 c 0.539,-0.113 1.026,-0.652 1.083,-1.199 l 0.749,-3.953 c 0.145,-0.53 -0.114,-1.211 -0.574,-1.512 l -3.259,-2.132 c -0.46,-0.301 -0.644,-0.953 -0.408,-1.45 l 1.114,-2.088 c 0.279,-0.474 0.511,-0.868 0.516,-0.875 0.005,-0.008 0.273,-0.378 0.596,-0.824 l 1.464,-1.858 c 0.36,-0.416 1.031,-0.51 1.492,-0.209 l 3.259,2.131 c 0.461,0.301 1.188,0.265 1.616,-0.08 l 3.321,-2.272 c 0.478,-0.273 0.777,-0.936 0.664,-1.474 l -0.797,-3.808 c -0.113,-0.538 0.219,-1.129 0.737,-1.314 l 2.264,-0.689 c 0.533,-0.138 0.975,-0.252 0.983,-0.253 0.009,-0.002 0.46,-0.076 1.003,-0.163 l 2.351,-0.276 c 0.549,-0.039 1.09,0.369 1.202,0.908 l 0.797,3.809 c 0.113,0.538 0.653,1.025 1.2,1.083 l 3.954,0.75 c 0.531,0.145 1.211,-0.114 1.512,-0.574 l 2.131,-3.261 c 0.301,-0.46 0.953,-0.643 1.45,-0.408 0,0 1.715,0.814 2.962,1.631 1.247,0.813 2.683,2.06 2.683,2.06 0.415,0.361 0.509,1.033 0.207,1.493 l -2.129,3.258 c -0.302,0.46 -0.266,1.188 0.079,1.617 l 2.271,3.32 c 0.272,0.477 0.935,0.777 1.474,0.664 l 3.809,-0.797 c 0.539,-0.113 1.11,0.226 1.269,0.752 l 1.381,6.59 c 0.065,0.546 -0.323,1.085 -0.861,1.198 l -3.81,0.796 c -0.539,0.113 -1.026,0.652 -1.084,1.199 l -0.749,3.953 c -0.144,0.531 0.114,1.211 0.575,1.513 l 3.258,2.131 c 0.461,0.302 0.644,0.954 0.409,1.451 l -1.114,2.087 c -0.279,0.475 -0.51,0.868 -0.515,0.876 -0.006,0.008 -0.274,0.379 -0.597,0.824 l -1.464,1.858 z"
               inkscape:connector-curvature="0" />
          </g>
          <g
             transform="matrix(1.25,0,0,-1.25,243.74621,542.69418)"
             id="g3178">
            <path
               id="path3180"
               style="fill:#231f20;fill-opacity:1;fill-rule:nonzero;stroke:none"
               d="m 0,0 c -2.689,-1.758 -6.294,-1.003 -8.054,1.687 -1.757,2.688 -1.003,6.293 1.686,8.052 2.691,1.759 6.295,1.003 8.054,-1.685 C 3.443,5.364 2.689,1.76 0,0 m -8.755,13.389 c -4.705,-3.076 -6.026,-9.384 -2.949,-14.089 3.076,-4.706 9.385,-6.027 14.091,-2.951 4.706,3.077 6.027,9.385 2.95,14.09 -3.077,4.707 -9.385,6.028 -14.092,2.95"
               inkscape:connector-curvature="0" />
          </g>
          <g
             transform="matrix(1.25,0,0,-1.25,216.32796,608.69405)"
             id="g3182">
            <path
               id="path3184"
               style="fill:#231f20;fill-opacity:1;fill-rule:nonzero;stroke:none"
               d="M 0,0 C -1.346,-0.88 -3.148,-0.501 -4.026,0.844 -4.907,2.188 -4.528,3.989 -3.183,4.869 -1.839,5.747 -0.037,5.371 0.842,4.025 1.721,2.682 1.344,0.879 0,0 m 3.175,10.763 c -0.46,-0.302 -1.261,-0.4 -1.78,-0.218 l -2.47,0.518 c -0.549,0.041 -1.243,0.454 -1.544,0.914 l -1.937,2.963 c -0.3,0.46 -0.923,0.591 -1.383,0.29 l -5.631,-3.681 c -0.46,-0.301 -0.591,-0.924 -0.289,-1.384 L -9.922,7.201 C -9.621,6.741 -9.523,5.939 -9.704,5.42 L -10.22,2.951 c -0.042,-0.549 -0.453,-1.243 -0.914,-1.544 l -2.963,-1.937 c -0.46,-0.301 -0.591,-0.924 -0.289,-1.384 l 3.679,-5.629 c 0.302,-0.46 0.924,-0.591 1.385,-0.29 l 2.963,1.937 c 0.46,0.301 1.261,0.399 1.781,0.218 l 2.467,-0.518 c 0.548,-0.042 1.243,-0.454 1.545,-0.914 l 1.936,-2.961 c 0.301,-0.46 0.924,-0.591 1.384,-0.29 l 5.629,3.679 c 0.461,0.301 0.591,0.924 0.29,1.384 l -1.936,2.963 c -0.3,0.46 -0.399,1.262 -0.217,1.781 l 0.517,2.47 C 7.079,2.465 7.49,3.159 7.951,3.46 l 2.963,1.937 c 0.46,0.301 0.59,0.924 0.289,1.384 l -3.68,5.63 C 7.222,12.871 6.599,13.002 6.139,12.7 L 3.175,10.763 z"
               inkscape:connector-curvature="0" />
          </g>
          <text
             id="text3186"
             x="235.35634"
             y="619.6333"
             style="font-size:15px">
            <tspan
               id="tspan3188"
               sodipodi:role="line"
               y="619.6333"
               x="235.35634 297.62634 339.68134 398.50635 448.42633 472.86633 527.27136"
               style="font-size:65px;font-variant:normal;font-weight:bold;font-stretch:normal;writing-mode:lr-tb;fill:#231f20;fill-opacity:1;fill-rule:nonzero;stroke:none;font-family:GillSans;-inkscape-font-specification:GillSans-Bold">MENTION</tspan>
          </text>
        </g>
      </g>
    </g>
  </g>
</svg>
